<mxfile host="app.diagrams.net" modified="2023-07-06T14:22:53.640Z" agent="Mozilla/5.0 (Windows NT 10.0; Win64; x64) AppleWebKit/537.36 (KHTML, like Gecko) Chrome/113.0.0.0 Safari/537.36 OPR/99.0.0.0" etag="3KpGzWpv-tGhtjmRlgQh" version="21.3.6" type="github">
  <diagram name="Страница 1" id="zSze2OofJTrVx-L_bqg2">
    <mxGraphModel dx="397" dy="541" grid="1" gridSize="10" guides="1" tooltips="1" connect="1" arrows="1" fold="1" page="1" pageScale="1" pageWidth="827" pageHeight="1169" math="0" shadow="0">
      <root>
        <mxCell id="0" />
        <mxCell id="1" parent="0" />
        <mxCell id="zmcopD96sghGadIHIDG5-2" style="edgeStyle=orthogonalEdgeStyle;rounded=0;orthogonalLoop=1;jettySize=auto;html=1;" edge="1" parent="1" source="zmcopD96sghGadIHIDG5-1">
          <mxGeometry relative="1" as="geometry">
            <mxPoint x="300" y="180" as="targetPoint" />
          </mxGeometry>
        </mxCell>
        <mxCell id="zmcopD96sghGadIHIDG5-1" value="Начало программы" style="rounded=0;whiteSpace=wrap;html=1;" vertex="1" parent="1">
          <mxGeometry x="160" y="40" width="280" height="100" as="geometry" />
        </mxCell>
        <mxCell id="zmcopD96sghGadIHIDG5-4" style="edgeStyle=orthogonalEdgeStyle;rounded=0;orthogonalLoop=1;jettySize=auto;html=1;" edge="1" parent="1" source="zmcopD96sghGadIHIDG5-3" target="zmcopD96sghGadIHIDG5-5">
          <mxGeometry relative="1" as="geometry">
            <mxPoint x="610" y="245" as="targetPoint" />
          </mxGeometry>
        </mxCell>
        <mxCell id="zmcopD96sghGadIHIDG5-8" style="edgeStyle=orthogonalEdgeStyle;rounded=0;orthogonalLoop=1;jettySize=auto;html=1;" edge="1" parent="1" source="zmcopD96sghGadIHIDG5-3" target="zmcopD96sghGadIHIDG5-9">
          <mxGeometry relative="1" as="geometry">
            <mxPoint x="305" y="450" as="targetPoint" />
          </mxGeometry>
        </mxCell>
        <mxCell id="zmcopD96sghGadIHIDG5-3" value="Подключение библиотек" style="rounded=0;whiteSpace=wrap;html=1;" vertex="1" parent="1">
          <mxGeometry x="160" y="180" width="290" height="130" as="geometry" />
        </mxCell>
        <mxCell id="zmcopD96sghGadIHIDG5-5" value="1-#include &amp;lt;iostream&amp;gt;&lt;br&gt;2-#include &amp;lt;string&amp;gt;&lt;br&gt;3-include &amp;lt;Windows.h&amp;gt;&amp;nbsp;&lt;br&gt;4-#include &amp;lt;algorithm&amp;gt;&lt;br&gt;5-#include &amp;lt;time.h&amp;gt;" style="rounded=0;whiteSpace=wrap;html=1;" vertex="1" parent="1">
          <mxGeometry x="551" y="150" width="460" height="340" as="geometry" />
        </mxCell>
        <mxCell id="zmcopD96sghGadIHIDG5-10" style="edgeStyle=orthogonalEdgeStyle;rounded=0;orthogonalLoop=1;jettySize=auto;html=1;" edge="1" parent="1" source="zmcopD96sghGadIHIDG5-9" target="zmcopD96sghGadIHIDG5-11">
          <mxGeometry relative="1" as="geometry">
            <mxPoint x="305" y="710" as="targetPoint" />
          </mxGeometry>
        </mxCell>
        <mxCell id="zmcopD96sghGadIHIDG5-9" value="Задаем константность MAX_PLAYERS=4" style="rounded=0;whiteSpace=wrap;html=1;" vertex="1" parent="1">
          <mxGeometry x="160" y="420" width="290" height="180" as="geometry" />
        </mxCell>
        <mxCell id="zmcopD96sghGadIHIDG5-12" style="edgeStyle=orthogonalEdgeStyle;rounded=0;orthogonalLoop=1;jettySize=auto;html=1;" edge="1" parent="1" source="zmcopD96sghGadIHIDG5-11" target="zmcopD96sghGadIHIDG5-13">
          <mxGeometry relative="1" as="geometry">
            <mxPoint x="305" y="910" as="targetPoint" />
          </mxGeometry>
        </mxCell>
        <mxCell id="zmcopD96sghGadIHIDG5-11" value="Создаем функцию&amp;nbsp;displayBoard она&amp;nbsp;&lt;br&gt;будет отвечать за вид программы&lt;br&gt;&amp;nbsp;" style="rounded=0;whiteSpace=wrap;html=1;" vertex="1" parent="1">
          <mxGeometry x="160" y="680" width="290" height="170" as="geometry" />
        </mxCell>
        <mxCell id="zmcopD96sghGadIHIDG5-15" style="edgeStyle=orthogonalEdgeStyle;rounded=0;orthogonalLoop=1;jettySize=auto;html=1;" edge="1" parent="1" source="zmcopD96sghGadIHIDG5-13" target="zmcopD96sghGadIHIDG5-16">
          <mxGeometry relative="1" as="geometry">
            <mxPoint x="305" y="1190" as="targetPoint" />
          </mxGeometry>
        </mxCell>
        <mxCell id="zmcopD96sghGadIHIDG5-13" value="Создаем функцию&amp;nbsp;isWordGuessed она будет проверять были ли угаданы все буквы в слове&lt;br&gt;&amp;nbsp;" style="rounded=0;whiteSpace=wrap;html=1;" vertex="1" parent="1">
          <mxGeometry x="160" y="880" width="290" height="230" as="geometry" />
        </mxCell>
        <mxCell id="zmcopD96sghGadIHIDG5-17" style="edgeStyle=orthogonalEdgeStyle;rounded=0;orthogonalLoop=1;jettySize=auto;html=1;" edge="1" parent="1" source="zmcopD96sghGadIHIDG5-16" target="zmcopD96sghGadIHIDG5-18">
          <mxGeometry relative="1" as="geometry">
            <mxPoint x="560" y="1280" as="targetPoint" />
          </mxGeometry>
        </mxCell>
        <mxCell id="zmcopD96sghGadIHIDG5-24" style="edgeStyle=orthogonalEdgeStyle;rounded=0;orthogonalLoop=1;jettySize=auto;html=1;" edge="1" parent="1" source="zmcopD96sghGadIHIDG5-16" target="zmcopD96sghGadIHIDG5-25">
          <mxGeometry relative="1" as="geometry">
            <mxPoint x="310" y="1490" as="targetPoint" />
          </mxGeometry>
        </mxCell>
        <mxCell id="zmcopD96sghGadIHIDG5-16" value="Создаем функцию&amp;nbsp;chooseWord в ней будут храниться и случайно выбираться слова для разгадывания&lt;br&gt;&amp;nbsp;" style="rounded=0;whiteSpace=wrap;html=1;" vertex="1" parent="1">
          <mxGeometry x="160" y="1160" width="300" height="240" as="geometry" />
        </mxCell>
        <mxCell id="zmcopD96sghGadIHIDG5-20" style="edgeStyle=orthogonalEdgeStyle;rounded=0;orthogonalLoop=1;jettySize=auto;html=1;" edge="1" parent="1" source="zmcopD96sghGadIHIDG5-18" target="zmcopD96sghGadIHIDG5-21">
          <mxGeometry relative="1" as="geometry">
            <mxPoint x="635" y="1260" as="targetPoint" />
          </mxGeometry>
        </mxCell>
        <mxCell id="zmcopD96sghGadIHIDG5-18" value="СЛОВА" style="rounded=0;whiteSpace=wrap;html=1;" vertex="1" parent="1">
          <mxGeometry x="500" y="1169" width="270" height="60" as="geometry" />
        </mxCell>
        <mxCell id="zmcopD96sghGadIHIDG5-21" value="ЗСУ, Украина, Днепр, Победа, Футбол, Мариуполь, Оплот, Мяч, Дом, Хаос, Любовь.&amp;nbsp;" style="rounded=0;whiteSpace=wrap;html=1;" vertex="1" parent="1">
          <mxGeometry x="500" y="1250" width="270" height="190" as="geometry" />
        </mxCell>
        <mxCell id="zmcopD96sghGadIHIDG5-26" style="edgeStyle=orthogonalEdgeStyle;rounded=0;orthogonalLoop=1;jettySize=auto;html=1;" edge="1" parent="1" source="zmcopD96sghGadIHIDG5-25" target="zmcopD96sghGadIHIDG5-27">
          <mxGeometry relative="1" as="geometry">
            <mxPoint x="310.0000000000001" y="1700" as="targetPoint" />
          </mxGeometry>
        </mxCell>
        <mxCell id="zmcopD96sghGadIHIDG5-25" value="Создаем функцию&amp;nbsp;&amp;nbsp;playToScore она будет отвечать за режимы, за ходьбу игроков, очередь кто будет ходить, будет проверять угадал ли ты слово и за финальный счет , очки игроков&amp;nbsp;&lt;br&gt;(Это основная функция программы)" style="rounded=0;whiteSpace=wrap;html=1;" vertex="1" parent="1">
          <mxGeometry x="160" y="1460" width="300" height="180" as="geometry" />
        </mxCell>
        <mxCell id="zmcopD96sghGadIHIDG5-28" style="edgeStyle=orthogonalEdgeStyle;rounded=0;orthogonalLoop=1;jettySize=auto;html=1;" edge="1" parent="1" source="zmcopD96sghGadIHIDG5-27" target="zmcopD96sghGadIHIDG5-29">
          <mxGeometry relative="1" as="geometry">
            <mxPoint x="529.9999999999999" y="1745" as="targetPoint" />
          </mxGeometry>
        </mxCell>
        <mxCell id="zmcopD96sghGadIHIDG5-30" style="edgeStyle=orthogonalEdgeStyle;rounded=0;orthogonalLoop=1;jettySize=auto;html=1;" edge="1" parent="1" source="zmcopD96sghGadIHIDG5-27" target="zmcopD96sghGadIHIDG5-31">
          <mxGeometry relative="1" as="geometry">
            <mxPoint x="310.0000000000001" y="1890" as="targetPoint" />
          </mxGeometry>
        </mxCell>
        <mxCell id="zmcopD96sghGadIHIDG5-27" value="теперь переходи&amp;nbsp; к int main()&lt;br&gt;Делаем так чтобы текс можно было писать на кирилице и программа отображала его,&lt;br&gt;" style="rounded=0;whiteSpace=wrap;html=1;" vertex="1" parent="1">
          <mxGeometry x="160" y="1670" width="300" height="150" as="geometry" />
        </mxCell>
        <mxCell id="zmcopD96sghGadIHIDG5-29" value="Создаем масив Player players[MAX_PLAYERS -нужно для того что-бы хранить информацию об игроках]&lt;br&gt;в ней должно предлагаться ввести имя каждого игрока.&amp;nbsp;" style="rounded=0;whiteSpace=wrap;html=1;" vertex="1" parent="1">
          <mxGeometry x="520" y="1670" width="530" height="150" as="geometry" />
        </mxCell>
        <mxCell id="zmcopD96sghGadIHIDG5-32" style="edgeStyle=orthogonalEdgeStyle;rounded=0;orthogonalLoop=1;jettySize=auto;html=1;" edge="1" parent="1" source="zmcopD96sghGadIHIDG5-31" target="zmcopD96sghGadIHIDG5-33">
          <mxGeometry relative="1" as="geometry">
            <mxPoint x="549.9999999999999" y="1920" as="targetPoint" />
          </mxGeometry>
        </mxCell>
        <mxCell id="zmcopD96sghGadIHIDG5-34" style="edgeStyle=orthogonalEdgeStyle;rounded=0;orthogonalLoop=1;jettySize=auto;html=1;" edge="1" parent="1" source="zmcopD96sghGadIHIDG5-31" target="zmcopD96sghGadIHIDG5-35">
          <mxGeometry relative="1" as="geometry">
            <mxPoint x="310.0000000000001" y="2040" as="targetPoint" />
          </mxGeometry>
        </mxCell>
        <mxCell id="zmcopD96sghGadIHIDG5-31" value="Объявляем переменную- int gamemode;&lt;br&gt;которая будет хранить выбранный режим игры." style="rounded=0;whiteSpace=wrap;html=1;" vertex="1" parent="1">
          <mxGeometry x="170" y="1860" width="280" height="120" as="geometry" />
        </mxCell>
        <mxCell id="zmcopD96sghGadIHIDG5-33" value="&lt;div&gt;cout &amp;lt;&amp;lt; &quot;Выберите режим игры:&quot; &amp;lt;&amp;lt; endl;&lt;/div&gt;&lt;div&gt;&amp;nbsp; &amp;nbsp; cout &amp;lt;&amp;lt; &quot;1. Кто первый дойдет до 1000&quot; &amp;lt;&amp;lt; endl;&lt;/div&gt;&lt;div&gt;&amp;nbsp; &amp;nbsp; cout &amp;lt;&amp;lt; &quot;2. Кто первый угадает слово полностью&quot; &amp;lt;&amp;lt; endl;&lt;/div&gt;&lt;div&gt;&amp;nbsp; &amp;nbsp; cout &amp;lt;&amp;lt; &quot;Ваш выбор: &quot;;&lt;/div&gt;&lt;div&gt;&amp;nbsp; &amp;nbsp; cin &amp;gt;&amp;gt; gameMode;&lt;/div&gt;" style="rounded=0;whiteSpace=wrap;html=1;" vertex="1" parent="1">
          <mxGeometry x="490" y="1860" width="280" height="120" as="geometry" />
        </mxCell>
        <mxCell id="zmcopD96sghGadIHIDG5-36" style="edgeStyle=orthogonalEdgeStyle;rounded=0;orthogonalLoop=1;jettySize=auto;html=1;" edge="1" parent="1" source="zmcopD96sghGadIHIDG5-35" target="zmcopD96sghGadIHIDG5-37">
          <mxGeometry relative="1" as="geometry">
            <mxPoint x="310.0000000000001" y="2200" as="targetPoint" />
          </mxGeometry>
        </mxCell>
        <mxCell id="zmcopD96sghGadIHIDG5-35" value="А дальше уже если игрок выбра1 - то играют кто первый наберет 1000очков, если 2 -то кто первый угадает слова и если человек захочет ввести 3 или все числа кроме 1 и 2 то программа выпишет Некорректный выбор режима игры." style="rounded=0;whiteSpace=wrap;html=1;" vertex="1" parent="1">
          <mxGeometry x="170" y="2010" width="280" height="110" as="geometry" />
        </mxCell>
        <mxCell id="zmcopD96sghGadIHIDG5-37" value="Конец программы" style="rounded=0;whiteSpace=wrap;html=1;" vertex="1" parent="1">
          <mxGeometry x="180" y="2170" width="260" height="60" as="geometry" />
        </mxCell>
      </root>
    </mxGraphModel>
  </diagram>
</mxfile>
